PathFileType	4	(X/Y/Z)	Patient4_TMGait_0pt7_02_right_39.trc.trc
DataRate	CameraRate	NumFrames	NumMarkers	Units	OrigDataRate	OrigDataStartFrame	OrigNumFrames
85.365853658537	85.365853658537	6	33	mm	85.365853658537	71	       141
Frame#	Time	Sacral			L.Shoulder			Chest			R.Shoulder			Neck			R.ASIS			L.ASIS			R.Thigh.Superior			R.Thigh.Lateral			R.Thigh.Inferior			R.Patella			L.Thigh.Superior			L.Thigh.Lateral			L.Thigh.Inferior			L.Patella			L.Shank.Superior			L.Shank.Lateral			L.Shank.Inferior			R.Shank.Superior			R.Shank.Lateral			R.Shank.Inferior			R.Heel			R.Midfoot.Superior			R.Midfoot.Lateral			R.Toe			L.Heel			L.Midfoot.Lateral			L.Midfoot.Superior			L.Toe			L.Elbow			L.Wrist			R.Elbow			R.Wrist			
		X1	Y1	Z1	X2	Y2	Z2	X3	Y3	Z3	X4	Y4	Z4	X5	Y5	Z5	X6	Y6	Z6	X7	Y7	Z7	X8	Y8	Z8	X9	Y9	Z9	X10	Y10	Z10	X11	Y11	Z11	X12	Y12	Z12	X13	Y13	Z13	X14	Y14	Z14	X15	Y15	Z15	X16	Y16	Z16	X17	Y17	Z17	X18	Y18	Z18	X19	Y19	Z19	X20	Y20	Z20	X21	Y21	Z21	X22	Y22	Z22	X23	Y23	Z23	X24	Y24	Z24	X25	Y25	Z25	X26	Y26	Z26	X27	Y27	Z27	X28	Y28	Z28	X29	Y29	Z29	X30	Y30	Z30	X31	Y31	Z31	X32	Y32	Z32	X33	Y33	Z33	

71	44.890000000000	753.684765646570	1015.171416012576	509.717164699155	976.943248376255	1409.776443108345	314.072751170946	1076.554394957292	1329.090810692224	472.094391564563	1015.246433490137	1419.832688624005	645.514126624558	994.140890244311	1473.290881270116	468.663394470822	966.920671209207	933.428809787300	638.075345318678	964.068898467727	929.858820684852	360.883127181280	950.234495472116	719.124379239591	617.429284575691	833.514812237567	635.765693507707	672.428682386302	893.028135952845	564.076114616494	597.510533529348	871.419941622828	482.355780430615	601.005487962071	1032.853548673273	769.644708107777	408.139217106336	1004.635796368312	640.984507678999	319.530006486704	1107.383889215147	588.269151848686	390.001885829729	1136.877750241155	516.572752332481	386.956979522720	1113.496682191559	440.127362921101	373.963603871469	1038.705328557341	318.927923457733	313.403446476642	1107.806517947545	209.794300122044	373.750795465259	831.254371595877	402.553088154187	604.692678976812	746.542346524562	307.443206990963	663.292143689877	780.331772455790	208.821710832209	598.899165220838	631.207954737969	50.134680255326	565.229851914614	805.940015295636	97.404748547413	599.764451077337	715.487709850571	38.710144177009	637.420423586874	923.579783797252	38.272242011041	623.293662083108	1001.998120688262	41.351099540749	396.132694084227	1083.128214560117	42.781839147868	322.940098736234	1158.672639203653	110.121284616678	355.508513820577	1291.526315402166	68.007750165451	339.751408190668	783.421620923417	1117.151688962050	223.534362877326	690.523185123876	874.293824835364	248.327273777016	1128.348448115184	1102.592398706014	762.167012556933	1366.581322809544	1103.768322502670	671.846278263474	
72	44.901714285714	754.617587466268	1013.255439384185	506.779692971557	977.387497950530	1408.361773138742	311.651231436574	1076.420037592762	1328.513723121643	470.544939691491	1013.223173043494	1419.119244990357	643.462618706640	993.340918563600	1472.202033168230	466.167325405678	967.753325895697	932.135911247682	636.433055561003	966.135011353676	928.217381876180	359.588650696825	950.533045514837	717.574420916366	615.723674047558	832.968457305241	634.819272208029	670.649097972266	891.985659133017	562.642983012776	595.957704364936	869.249750912665	480.697782469994	599.266820106984	1033.867070398706	765.204405343797	406.423358937023	1002.155031949142	636.834783833037	318.997047078270	1104.181467558514	583.051107980744	389.820573636939	1131.893246724067	511.639843232716	387.450289152934	1109.295340969055	435.736883025143	373.663786988799	1035.117046058798	314.000287317590	313.829936175931	1105.069526110093	205.466799846426	374.215123435700	828.060896530874	401.203939061492	603.371848915460	741.975180126430	307.506084199955	662.302872603599	774.113740883546	208.255397948139	598.255393117005	623.071787967750	50.784508005613	565.280617670003	797.875883550106	97.446579868680	599.661959147489	707.301538208691	39.029012635485	637.456173869208	915.344683507908	38.093824246676	623.340688757644	999.665677334965	38.058388286289	397.602989839361	1080.380359792804	39.219498539178	323.838089437386	1156.325844533076	105.620411470911	356.353385376741	1289.007744097461	62.755539919678	339.859689743462	783.485234973882	1116.217379584209	221.806603469668	688.657924199426	874.169075310502	248.096591702022	1126.495414660879	1101.435904202383	759.187857599517	1363.738360964884	1108.028239114405	667.708809078206	
73	44.913428571429	755.462079550728	1011.594248784634	503.942808251774	977.838717722053	1407.061297037913	309.092085472914	1076.359160595861	1328.112671162911	468.855455206371	1011.349150966559	1418.638706855701	641.295583202780	992.673141689464	1471.306311450637	463.446145410361	968.586914440192	930.900666465680	634.623884389716	967.980240328953	926.982967387801	358.207913720147	951.117806050202	716.163719882685	613.721311796533	832.986388813754	633.844484124952	668.709100094222	891.595922518104	561.236599630767	594.195512324257	867.811033630834	478.959532370898	597.328502095491	1035.246474782065	761.958416849547	404.671992847435	1000.674562520968	634.029852921862	318.209293366968	1101.974912970009	579.271085123283	389.276074130953	1128.009747787199	507.849383086557	387.462920129463	1105.854198698521	432.233961901968	373.156930558346	1031.566853887534	310.565484237914	313.776466966227	1101.177884997717	202.129708806684	374.415184418613	825.484743760031	399.752811366077	601.885405104376	737.925955997327	307.660941812856	661.232542378096	768.189636719571	207.755661443449	597.563788535528	614.999292582753	51.786472160848	565.368064580161	789.950165748059	97.566987805122	599.570082104174	699.171815426500	39.526255329441	637.512887767151	907.137224117208	37.889958706082	623.388738159860	994.875448066095	36.270896575089	398.755957614557	1075.194090792398	36.863162199903	324.445356637859	1151.833159325449	102.036886794009	356.935196541376	1284.162269054211	57.851004903138	339.717382355252	784.456913393643	1114.624908207553	219.951818641328	688.224744762264	873.199637560503	247.530249989225	1123.712915367171	1100.066015303435	756.525711239245	1359.975280771633	1111.134450216614	664.038537896010	
74	44.925142857143	756.197671449916	1010.279791976983	501.232614026348	978.282997309074	1405.960597141065	306.453241442938	1076.377488290192	1327.899485623472	467.032994609016	1009.749804031480	1418.414487187310	639.037644844577	992.180139641462	1470.659716904786	460.576681128114	969.363663657571	929.812314756268	632.644860493312	969.546749459995	926.204828601444	356.660185596806	951.892104715810	714.982922315547	611.479566823563	833.507977497171	632.903028856380	666.650527834436	891.845554554578	559.930585580574	592.286874760686	867.128004543444	477.178545883592	595.315618154995	1036.899756446172	760.014132740781	402.844323591739	1000.130549246568	632.543923177813	317.149597082345	1100.694522866677	576.876909923682	388.293239818423	1125.210908972795	505.192633322526	386.977847406484	1103.183065682899	429.615872179914	372.500367598746	1028.270863275958	308.492602522452	313.206092001731	1096.439826381735	199.723558794036	374.382161916251	823.526336575642	398.261324759248	600.315296691029	734.372024213156	307.975867142026	660.117151357944	762.582588397540	207.395733599844	596.875605254091	607.016071643730	53.238559060839	565.490001746896	782.212364296071	97.789975145814	599.512028401804	691.117786519843	40.249343313973	637.587572373910	898.967111753916	37.668027511263	623.435383595147	988.193018473233	35.645959992984	399.530315697847	1068.186373725370	35.521486028096	324.761302394085	1145.657111198525	99.397619036953	357.269349734452	1277.555182798888	53.596832332119	339.427640451775	786.332419761731	1112.469226915905	217.959725439242	689.307257352702	871.414754429068	246.595168006513	1119.994338184815	1098.501858049854	754.228419625850	1355.352681067903	1113.030027111573	660.851123547091	
75	44.936857142857	756.826984244995	1009.367507905743	498.637567470290	978.703523386848	1405.134191084890	303.791966751878	1076.473101938094	1327.880430338301	465.091633248137	1008.517090673693	1418.457582240345	636.715952632693	991.882737188356	1470.305863612935	457.645449589736	970.045328822703	928.950431702615	630.499014992312	970.824813126528	925.900359342234	354.873216398905	952.781705342638	714.104263424989	609.070208353641	834.468648272387	632.051955860961	664.512884899979	892.718327142708	558.789170614455	590.303191691564	867.218510318094	475.386417150012	593.370566676641	1038.717201292859	759.301788463164	400.881035369508	1000.314354088392	632.165070461444	315.834985282313	1100.144377421156	575.638365959760	386.863224200868	1123.325109923684	503.515450863884	386.060198474968	1101.150085786625	427.773103032068	371.764818927161	1025.297047574014	307.530652377011	312.183304175667	1091.126698087187	198.107273999638	374.182216766263	822.179153740260	396.796120457929	598.757996633929	731.280340735396	308.519041449863	658.992033215669	757.314693269601	207.245191304639	596.243775573082	599.150451119840	55.226724701825	565.639683801613	774.708912563645	98.132523402988	599.510229461411	683.158062585268	41.240765230584	637.674357577023	890.841439924577	37.441308522834	623.476235611431	980.201661013647	35.819663268388	399.929274591689	1059.966344519378	34.962366794746	324.822038085591	1138.277526577709	97.638841363243	357.398653904383	1269.746041177104	50.162681685449	339.076049641701	789.069453575480	1109.878933971347	215.826591996900	691.968462667963	868.875954557237	245.267658802330	1115.348098283702	1096.783937258514	752.318726643305	1349.942609282596	1113.658099131435	658.152530509195	
76	44.948571428571	757.369155626051	1008.875124867369	496.111693860043	979.080737161247	1404.639225445168	301.157227407904	1076.637024187534	1328.061944515160	463.049514339788	1007.692824227260	1418.767454459470	634.358670111455	991.777115874818	1470.272714478770	454.736217142331	970.615217242634	928.374531563149	628.193456443515	971.847247951714	926.057393477283	352.802744164340	953.743904360345	713.571615383622	606.572011689301	835.803718933256	631.338814963479	662.331646718466	894.193126762303	557.859569443523	588.320112312510	868.090223701609	473.606800629408	591.637442422730	1040.583351235933	759.585710760696	398.713797619883	1000.904045000497	632.545202193657	314.316538351597	1100.038705685222	575.206910922671	385.050735374756	1122.057947723979	502.566621934052	384.849704764812	1099.512476684500	426.530088591560	371.021073834702	1022.566500024364	307.366472199090	310.855492439229	1085.447738950002	197.094289037170	373.896278721843	821.428226894988	395.423538603291	597.313840289326	728.614387327267	309.353584528995	657.891353205432	752.406411753304	207.365483524439	595.718938455804	591.433388736340	57.821595497038	565.809743449657	767.480784491304	98.601835282884	599.585453737003	675.309803757875	42.536005025414	637.766872570859	882.763246801886	37.227549445727	623.504858460811	971.433570448373	36.455618003801	400.006445235690	1051.069725460689	34.946346857889	324.688148766986	1130.139389514078	96.624285183084	357.382802723692	1261.232574897541	47.578965908945	338.726522197189	792.583316577597	1107.007957169216	213.554650472865	696.242256247421	865.676247446105	243.534777589387	1109.799770536503	1094.975754013515	750.789993632893	1343.826365118745	1112.964593314526	655.940375112973	
